<?xml version="1.0" standalone="no"?>
<!DOCTYPE svg PUBLIC "-//W3C//DTD SVG 20010904//EN"
 "http://www.w3.org/TR/2001/REC-SVG-20010904/DTD/svg10.dtd">
<svg version="1.0" xmlns="http://www.w3.org/2000/svg"
 width="300.000000pt" height="300.000000pt" viewBox="0 0 300.000000 300.000000"
 preserveAspectRatio="xMidYMid meet">

<g transform="translate(0.000000,300.000000) scale(0.100000,-0.100000)">
<path fill="#FAFAEB" stroke="red" d="M0 1500 l0 -1500 1500 0 1500 0 0 1500 0 1500 -1500 0 -1500 0 0
-1500z m1927 1127 c1 -2 5 -101 9 -220 l7 -217 -50 0 c-28 0 -102 -9 -165 -20
-408 -70 -668 -232 -739 -461 -72 -232 59 -592 268 -735 93 -63 161 -86 278
-92 82 -3 117 0 185 17 103 26 231 87 288 138 l42 38 -52 142 c-29 79 -57 143
-63 143 -5 0 -99 -32 -208 -71 -109 -40 -199 -70 -201 -68 -8 11 -148 410
-145 413 13 11 870 317 877 312 4 -3 82 -208 172 -456 l163 -450 -59 -87 c-71
-106 -204 -240 -305 -310 -150 -103 -354 -190 -541 -230 -125 -27 -355 -24
-472 5 -223 56 -425 194 -558 382 -97 137 -182 346 -208 512 -18 111 -8 331
19 433 47 174 162 359 303 490 229 211 581 361 933 395 69 7 213 5 222 -3z"/>
</g>
</svg>
